<svg id="Bg" xmlns="http://www.w3.org/2000/svg" width="1920" height="744.03" viewBox="0 0 1920 744.03">
  <metadata><?xpacket begin="﻿" id="W5M0MpCehiHzreSzNTczkc9d"?>
<x:xmpmeta xmlns:x="adobe:ns:meta/" x:xmptk="Adobe XMP Core 5.6-c142 79.160924, 2017/07/13-01:06:39        ">
   <rdf:RDF xmlns:rdf="http://www.w3.org/1999/02/22-rdf-syntax-ns#">
      <rdf:Description rdf:about=""/>
   </rdf:RDF>
</x:xmpmeta>
                                                                                                    
                                                                                                    
                                                                                                    
                                                                                                    
                                                                                                    
                                                                                                    
                                                                                                    
                                                                                                    
                                                                                                    
                                                                                                    
                                                                                                    
                                                                                                    
                                                                                                    
                                                                                                    
                                                                                                    
                                                                                                    
                                                                                                    
                                                                                                    
                                                                                                    
                                                                                                    
                           
<?xpacket end="w"?></metadata>
<defs>
    <style>
      .cls-1 {
        fill: #f6f6f6;
      }

      .cls-1, .cls-2 {
        fill-rule: evenodd;
      }

      .cls-2 {
        fill: #ededed;
      }
    </style>
  </defs>
  <path id="Section_bg" class="cls-1" d="M-375,2274H1545v719H-375V2274Z" transform="translate(0 -2266.97)"/>
  <path id="Pattern" class="cls-2" d="M-316.954,2316.18l-1.669-1.58,1.812,1.39,5.19-6.71,30.49-28.82,30.631,28.98,4.26,5.53,48.615-45.99h2.206l-49.889,47.2,0.744,0.96-36.567-34.6-36.57,34.6Zm-49.888-47.2h2.2l46.6,44.09-0.931,1.2Zm85.711,80.85-73.438,69.48-0.931-1.21,74.369-70.36,74.369,70.36-0.931,1.21ZM-295.4,2495.81l14.274-13.5,14.274,13.5-0.931,1.21-13.343-12.63-13.343,12.63Zm-30.047-38.85,44.321-41.94,44.322,41.94-0.931,1.2-43.391-41.05-43.389,41.05Zm44.321-6.21-28.367,26.84-0.931-1.21,29.3-27.72,29.3,27.72-0.931,1.21Zm0-134.56-88.462,83.69-0.931-1.21,89.393-84.57,89.393,84.57-0.933,1.21Zm21.878-22.55,26.07-24.66h2.206l-27.344,25.87Zm-15.025-19.43,5.536-5.23h2.207l-6.809,6.44Zm89.384,52.09-28.354,26.83-0.932-1.21,29.2-27.63,0.014,0.02,0.084-.08,29.271,27.69-0.933,1.21Zm-74.359,216.26,74.359-70.35,74.357,70.35-0.932,1.21-73.425-69.47-73.427,69.47Zm-15.024-19.43,89.383-84.56,89.381,84.56-0.932,1.21-88.449-83.68-88.45,83.68ZM-376,2361.24v-2.09l12.895,12.2-0.933,1.21Zm0-67.28v-2.09l42.941,40.63-0.932,1.2Zm0,33.64v-2.09l27.919,26.41-0.932,1.21Zm80.273-58.62h2.207l5.535,5.23-0.932,1.21Zm-35.559,0h2.207l26.068,24.66-0.931,1.21ZM-376,2441.95v-2.09l88.015,83.27-0.932,1.21Zm0,33.64v-2.09l72.989,69.06-0.931,1.21Zm251.519-159.41-1.672-1.59,1.815,1.4,5.191-6.71,30.49-28.82,30.631,28.98,4.26,5.53,48.615-45.99h2.207l-49.89,47.2,0.744,0.96-36.567-34.6-36.573,34.6Zm-49.888-47.2h2.206l46.6,44.09-0.932,1.2Zm85.712,80.85-73.438,69.48-0.931-1.21,74.369-70.36,74.369,70.36-0.933,1.21Zm-14.274,145.98,14.274-13.5,14.273,13.5-0.932,1.21-13.341-12.63L-102,2497.02Zm14.274-78.7-43.391,41.05-0.932-1.2,44.323-41.94,44.322,41.94-0.933,1.2Zm-29.3,59.27,29.3-27.72,29.3,27.72-0.932,1.21-28.367-26.84-28.367,26.84Zm29.3-160.19-88.462,83.69-0.931-1.21,89.393-84.57,89.393,84.57-0.933,1.21Zm21.879-22.55,26.068-24.66H-38.5l-27.343,25.87ZM-81.8,2274.21l5.536-5.23h2.207l-6.81,6.44ZM7.58,2326.3l-28.354,26.83-0.932-1.21,29.261-27.68,0.071,0.07,0.025-.03,29.215,27.64-0.933,1.21Zm-74.359,216.26,74.357-70.35,74.359,70.35-0.932,1.21L7.58,2474.3l-73.427,69.47ZM-81.8,2523.13l89.381-84.56,89.381,84.56-0.929,1.21L7.58,2440.66l-88.451,83.68Zm-117.353-151.78,14.262-13.49,14.262,13.49-0.932,1.21-13.33-12.61-13.33,12.61ZM-229.2,2332.5l44.225-41.85,0.016,0.02,0.085-.08,44.293,41.91-0.932,1.2-43.377-41.04-43.379,41.04Zm125.951-63.52h2.2l5.535,5.23-0.932,1.21Zm-35.559,0h2.207l26.068,24.66-0.932,1.21Zm206.8,47.2-1.675-1.59,1.818,1.4,5.192-6.71,30.489-28.82,30.633,28.98,4.26,5.53,48.614-45.99h2.206l-49.889,47.2,0.749,0.96-36.573-34.6L67.24,2317.15ZM18.1,2268.98H20.31l46.6,44.09-0.931,1.2Zm85.711,80.85-73.437,69.48-0.932-1.21,74.369-70.36,74.371,70.36-0.935,1.21Zm0,134.56-13.342,12.63-0.932-1.21,14.274-13.5,14.275,13.5-0.932,1.21Zm0-67.28-43.39,41.05-0.932-1.2,44.322-41.94,44.323,41.94-0.932,1.2Zm-29.3,59.27,29.3-27.72,29.3,27.72-0.929,1.21-28.368-26.84L75.45,2477.59Zm-60.1-77.71,89.393-84.57,89.394,84.57-0.932,1.21-88.462-83.69-88.46,83.69Zm111.272-105.03,26.068-24.66h2.208l-27.344,25.87Zm-15.023-19.43,5.534-5.23h2.208l-6.81,6.44Zm89.383,52.09L171.7,2353.13l-0.932-1.21,29.287-27.7,29.286,27.7-0.935,1.21Zm-74.36,216.26,74.357-70.35,74.36,70.35-0.932,1.21-73.425-69.47-73.428,69.47Zm74.36-101.9L111.6,2524.34l-0.932-1.21,89.383-84.56,89.38,84.56-0.932,1.21ZM7.58,2359.95l-13.332,12.61-0.93-1.21L7.58,2357.86l14.262,13.49-0.932,1.21Zm-44.31-27.45,44.283-41.9,0.073,0.07,0.027-.03,44.236,41.86-0.932,1.2L7.58,2292.66-35.8,2333.7Zm125.952-63.52h2.205l5.533,5.23-0.929,1.21Zm-35.56,0h2.208l26.068,24.66-0.932,1.21Zm206.8,47.2-1.675-1.59,1.818,1.4,5.189-6.71,30.492-28.82,30.633,28.98,4.26,5.53,48.614-45.99H382l-49.889,47.2,0.749,0.96-36.573-34.6-36.575,34.61Zm-49.888-47.2h2.208l46.6,44.09-0.931,1.2Zm85.712,80.85-73.436,69.48-0.932-1.21,74.368-70.36,74.371,70.36-0.934,1.21Zm0,134.56-13.342,12.63-0.932-1.21,14.274-13.5,14.274,13.5-0.931,1.21Zm-44.322-27.43,44.322-41.94,44.323,41.94-0.932,1.2-43.391-41.05-43.39,41.05Zm15.025,19.42,29.3-27.72,29.3,27.72-0.931,1.21-28.366-26.84-28.365,26.84Zm29.3-160.19-88.461,83.69-0.932-1.21,89.393-84.57,89.394,84.57-0.932,1.21Zm21.879-22.55,26.068-24.66h2.208L319.1,2294.85Zm-15.023-19.43,5.534-5.23h2.208l-6.81,6.44Zm89.383,52.09-28.355,26.83-0.932-1.21,29.287-27.7,29.283,27.7-0.932,1.21Zm-74.36,216.26,74.357-70.35,74.357,70.35-0.929,1.21-73.425-69.47L319.1,2543.77Zm74.36-101.9-88.451,83.68-0.932-1.21,89.38-84.56,89.382,84.56-0.931,1.21ZM185.79,2371.35l14.264-13.49,14.261,13.49-0.932,1.21-13.329-12.61-13.332,12.61Zm-30.048-38.85,44.312-41.93,44.308,41.93-0.931,1.2-43.377-41.04-43.38,41.04Zm125.95-63.52H283.9l5.534,5.23-0.932,1.21Zm-35.558,0h2.206l26.071,24.66-0.932,1.21Zm206.805,47.2-1.675-1.59,1.818,1.4,5.189-6.71,30.492-28.82,30.633,28.98,4.26,5.53,48.614-45.99h2.205l-49.888,47.2,0.749,0.96-36.573-34.6-36.575,34.61Zm-49.888-47.2h2.2l46.6,44.09-0.931,1.2Zm85.712,80.85-73.439,69.48-0.931-1.21,74.37-70.36,74.371,70.36-0.935,1.21Zm0,134.56-13.342,12.63-0.932-1.21,14.274-13.5,14.274,13.5-0.931,1.21Zm0-67.28-43.391,41.05-0.931-1.2,44.322-41.94,44.323,41.94-0.932,1.2Zm-29.3,59.27,29.3-27.72,29.3,27.72-0.932,1.21-28.365-26.84L460.4,2477.59Zm29.3-160.19L400.3,2399.88l-0.931-1.21,89.393-84.57,89.394,84.57-0.932,1.21Zm21.879-22.55,26.068-24.66h2.208l-27.345,25.87Zm-15.023-19.43,5.533-5.23h2.208l-6.809,6.44ZM585,2326.3l-28.355,26.83-0.929-1.21L585,2324.22l29.284,27.7-0.932,1.21Zm-74.357,216.26L585,2472.21l74.357,70.35-0.932,1.21L585,2474.3l-73.426,69.47ZM585,2440.66l-88.448,83.68-0.932-1.21L585,2438.57l89.382,84.56-0.931,1.21Zm-206.735-69.31,14.264-13.49,14.26,13.49-0.931,1.21-13.329-12.61L379.2,2372.56Zm-30.048-38.85,44.309-41.93,44.311,41.93-0.931,1.2-43.377-41.04-43.38,41.04Zm125.95-63.52h2.208l5.533,5.23-0.931,1.21Zm-35.558,0h2.206l26.068,24.66-0.929,1.2Zm206.805,47.2-1.675-1.59,1.817,1.4,5.19-6.71,30.492-28.82,30.632,28.98,4.258,5.53,48.614-45.99h2.208l-49.888,47.2,0.749,0.96-36.573-34.6-36.575,34.61Zm-49.888-47.2h2.205l46.6,44.09-0.932,1.2Zm11.341,149.12,74.371-70.36,74.368,70.36-0.932,1.21-73.436-69.48L607.8,2419.31Zm74.371,66.29-13.343,12.63-0.931-1.21,14.274-13.5,14.274,13.5-0.932,1.21Zm-44.322-27.43,44.322-41.94,44.322,41.94-0.931,1.2-43.391-41.05-43.391,41.05Zm15.022,19.42,29.3-27.72,29.3,27.72-0.932,1.21-28.365-26.84-28.365,26.84Zm29.3-160.19-88.462,83.69-0.932-1.21,89.394-84.57,89.393,84.57-0.931,1.21Zm21.878-22.55,26.069-24.66h2.208l-27.345,25.87Zm-15.025-19.43,5.536-5.23h2.208l-6.81,6.44Zm89.382,52.09-28.354,26.83-0.932-1.21,29.286-27.7,29.287,27.7-0.932,1.21Zm-74.357,216.26,74.357-70.35,74.358,70.35-0.932,1.21-73.426-69.47-73.425,69.47Zm74.357-101.9-88.448,83.68-0.934-1.21,89.382-84.56,89.383,84.56-0.931,1.21Zm-206.734-69.31L585,2357.86l14.261,13.49-0.932,1.21L585,2359.95l-13.329,12.61ZM540.69,2332.5L585,2290.57l44.309,41.93-0.93,1.2L585,2292.66l-43.377,41.04Zm125.95-63.52h2.208l5.533,5.23-0.931,1.21Zm-35.558,0h2.205l26.069,24.66-0.932,1.21Zm206.8,47.2L788,2268.98H790.2l48.615,45.99,4.4-5.69,30.493-28.82,30.632,28.98,4.258,5.53,48.614-45.99h2.208l-49.891,47.2,0.741,0.95-36.562-34.59-36.576,34.61ZM799.34,2418.1l74.371-70.36,74.368,70.36-0.932,1.21-73.436-69.48-73.439,69.48Zm60.1,77.71,14.274-13.5,14.271,13.5-0.929,1.21-13.342-12.63-13.343,12.63Zm14.274-78.7-43.391,41.05-0.931-1.2,44.322-41.94,44.32,41.94-0.932,1.2Zm-29.3,59.27,29.3-27.72,29.3,27.72-0.932,1.21-28.365-26.84-28.368,26.84Zm29.3-160.19-88.462,83.69-0.931-1.21,89.393-84.57,89.393,84.57-0.934,1.21Zm21.878-22.55,26.069-24.66h2.205l-27.342,25.87Zm-15.025-19.43,5.536-5.23h2.2l-6.81,6.44Zm89.382,52.09-28.354,26.83-0.932-1.21,29.2-27.63,0.073,0.09,0.083-.1,29.214,27.64-0.932,1.21Zm-74.357,216.26,74.333-70.33,0.014,0.02,0.024-.02,74.34,70.33-0.93,1.21-73.424-69.47-73.425,69.47Zm74.357-101.9L881.5,2524.34l-0.931-1.21,89.358-84.54,0.014,0.02,0.024-.03,89.37,84.55-0.93,1.21Zm-206.734-69.31,14.263-13.49,14.261,13.49-0.932,1.21-13.332-12.61-13.328,12.61Zm14.26-78.69L734.1,2333.7l-0.931-1.2,44.308-41.93,44.31,41.93-0.932,1.2Zm81.641-23.68h2.206l5.536,5.23-0.931,1.21Zm-35.557,0h2.2l26.069,24.66-0.932,1.21Zm242.624,13.56-36.56,34.6,0.74-.96-49.888-47.2h2.206l48.612,45.99,4.4-5.69,30.49-28.82,30.64,28.98,4.25,5.53,48.62-45.99h2.21l-49.89,47.2,0.74,0.96Zm0,67.29-73.434,69.48-0.932-1.21,74.366-70.36,74.37,70.36-0.93,1.21Zm0,134.56-13.34,12.63-0.93-1.21,14.27-13.5,14.28,13.5-0.94,1.21Zm0-67.28-43.39,41.05-0.93-1.2,44.32-41.94,44.32,41.94-0.93,1.2Zm0,33.64-28.36,26.84-0.93-1.21,29.29-27.72,29.3,27.72-0.93,1.21Zm0-134.56-88.457,83.69-0.934-1.21,89.391-84.57,89.4,84.57-0.94,1.21Zm21.88-22.55,26.07-24.66h2.21l-27.35,25.86Zm-15.02-19.43,5.53-5.23h2.21l-6.81,6.44Zm89.38,52.09-28.35,26.83-0.94-1.21,29.21-27.63,0.07,0.09,0.08-.1,29.22,27.64-0.94,1.21Zm0,148-73.43,69.47-0.93-1.21,74.34-70.33,0.01,0.02,0.02-.02,74.35,70.33-0.93,1.21Zm0-33.64-88.45,83.68-0.93-1.21,89.36-84.54,0.01,0.02,0.02-.03,89.37,84.55-0.93,1.21Zm-206.734-69.31,14.234-13.47,0.016,0.02,0.024-.03,14.25,13.48-0.932,1.21-13.332-12.61-13.329,12.61Zm14.26-78.69-43.377,41.04-0.931-1.2,44.225-41.85,0.073,0.09,0.083-.1,44.241,41.86-0.94,1.2Zm81.644-23.68h2.2l5.54,5.23-0.93,1.21Zm-35.56,0h2.21l26.06,24.66-0.93,1.21ZM-281.131,2598.75l-73.438,69.48-0.931-1.21,74.369-70.36,74.369,70.36-0.931,1.21ZM-295.4,2744.73l14.274-13.5,14.274,13.5-0.931,1.21-13.343-12.63-13.343,12.63Zm-30.047-38.85,44.321-41.94,44.322,41.94-0.931,1.2-43.391-41.05-43.389,41.05Zm44.321-6.21-28.367,26.84-0.931-1.21,29.3-27.72,29.3,27.72-0.931,1.21Zm0-134.56-88.462,83.69-0.931-1.21,89.393-84.57,89.393,84.57-0.933,1.21Zm96.237,43.76-13.33,12.61-0.932-1.21,14.262-13.49,14.262,13.49-0.932,1.21Zm0-67.29-43.379,41.04-0.931-1.2,44.31-41.93,44.309,41.93-0.932,1.2Zm0,33.64-28.354,26.83-0.932-1.21,29.286-27.7,29.286,27.7-0.933,1.21Zm-74.359,216.26,74.359-70.35,74.357,70.35-0.932,1.21-73.425-69.47-73.427,69.47Zm-15.025-19.43,89.384-84.56,89.381,84.56-0.932,1.21-88.449-83.68-88.45,83.68ZM-376,2610.16v-2.09l12.895,12.2-0.933,1.21Zm0-67.28v-2.09l42.941,40.63-0.932,1.2Zm0,33.64v-2.09l27.918,26.41-0.931,1.21Zm0,114.35v-2.09l88.015,83.27-0.932,1.21Zm0,33.64v-2.09l72.989,69.06-0.931,1.21Zm287.343-125.76-73.438,69.48-0.931-1.21,74.369-70.36,74.369,70.36-0.933,1.21Zm-14.274,145.98,14.274-13.5,14.273,13.5-0.932,1.21-13.341-12.63L-102,2745.94Zm14.274-78.7-43.391,41.05-0.932-1.2,44.323-41.94,44.322,41.94-0.933,1.2Zm-29.3,59.27,29.3-27.72,29.3,27.72-0.932,1.21-28.367-26.84-28.367,26.84Zm29.3-160.19-88.462,83.69-0.931-1.21,89.393-84.57,89.393,84.57L-0.2,2648.8ZM7.58,2608.87l-13.332,12.61-0.932-1.21L7.58,2606.78l14.262,13.49-0.932,1.21Zm0-67.29L-35.8,2582.62l-0.932-1.2,44.31-41.93,44.309,41.93-0.932,1.2Zm0,33.64-28.354,26.83-0.932-1.21,29.286-27.7,29.286,27.7-0.933,1.21Zm-74.359,216.26,74.357-70.35,74.359,70.35-0.932,1.21L7.58,2723.22l-73.427,69.47ZM-81.8,2772.05l89.383-84.56,89.381,84.56-0.929,1.21L7.58,2689.58l-88.451,83.68Zm185.619-173.3-73.437,69.48-0.932-1.21,74.369-70.36,74.371,70.36-0.935,1.21Zm0,134.56-13.342,12.63-0.932-1.21,14.274-13.5,14.275,13.5-0.932,1.21Zm0-67.28-43.39,41.05-0.932-1.2,44.322-41.94,44.323,41.94-0.932,1.2Zm-29.3,59.27,29.3-27.72,29.3,27.72-0.929,1.21-28.368-26.84L75.45,2726.51Zm-60.1-77.71,89.393-84.57,89.394,84.57-0.932,1.21-88.462-83.69-88.46,83.69Zm171.368-27.32,14.264-13.49,14.261,13.49-0.932,1.21-13.329-12.61-13.332,12.61Zm14.264-78.69-43.38,41.04-0.932-1.2,44.312-41.93,44.308,41.93-0.931,1.2Zm0,33.64L171.7,2602.05l-0.932-1.21,29.287-27.7,29.286,27.7-0.935,1.21Zm-74.36,216.26,74.357-70.35,74.36,70.35-0.932,1.21-73.425-69.47-73.428,69.47Zm-15.023-19.43,89.383-84.56,89.38,84.56-0.932,1.21-88.448-83.68L111.6,2773.26Zm185.618-173.3-73.436,69.48-0.932-1.21,74.368-70.36,74.371,70.36-0.934,1.21Zm0,134.56-13.342,12.63-0.932-1.21,14.274-13.5,14.274,13.5-0.931,1.21Zm-44.322-27.43,44.322-41.94,44.323,41.94-0.932,1.2-43.391-41.05-43.39,41.05Zm15.025,19.42,29.3-27.72,29.3,27.72-0.931,1.21-28.366-26.84-28.365,26.84Zm29.3-160.19-88.461,83.69-0.932-1.21,89.393-84.57,89.394,84.57-0.932,1.21Zm81.975,55.16,14.261-13.49,14.263,13.49-0.931,1.21-13.329-12.61L379.2,2621.48Zm14.264-78.69-43.38,41.04-0.932-1.2,44.309-41.93,44.311,41.93-0.931,1.2Zm0,33.64-28.355,26.83-0.932-1.21,29.287-27.7,29.283,27.7-0.932,1.21Zm-74.36,216.26,74.357-70.35,74.357,70.35-0.929,1.2-73.425-69.46L319.1,2792.69Zm-15.023-19.43,89.38-84.56,89.382,84.56-0.931,1.21-88.448-83.68-88.451,83.68Zm185.618-173.3-73.439,69.48-0.931-1.21,74.37-70.36,74.371,70.36-0.935,1.21Zm0,134.56-13.342,12.63-0.932-1.21,14.274-13.5,14.274,13.5-0.931,1.21Zm0-67.28-43.391,41.05-0.931-1.2,44.322-41.94,44.323,41.94-0.932,1.2Zm-29.3,59.27,29.3-27.72,29.3,27.72-0.932,1.21-28.365-26.84L460.4,2726.51Zm29.3-160.19L400.3,2648.8l-0.931-1.21,89.393-84.57,89.394,84.57-0.932,1.21ZM585,2608.87l-13.329,12.61-0.932-1.21L585,2606.78l14.261,13.49-0.932,1.21Zm0-67.29-43.377,41.04-0.932-1.2L585,2539.49l44.309,41.93-0.93,1.2Zm0,33.64-28.355,26.83-0.929-1.21L585,2573.14l29.284,27.7-0.932,1.21Zm-74.357,216.26L585,2721.13l74.357,70.35-0.932,1.21L585,2723.22l-73.426,69.47Zm-15.023-19.43L585,2687.49l89.382,84.56-0.931,1.21L585,2689.58l-88.448,83.68Zm111.247-105.03,74.371-70.36,74.368,70.36-0.932,1.21-73.436-69.48L607.8,2668.23Zm74.371,66.29-13.343,12.63-0.931-1.21,14.274-13.5,14.274,13.5-0.932,1.21Zm-44.322-27.43,44.322-41.94,44.322,41.94-0.931,1.2-43.391-41.05-43.391,41.05Zm15.022,19.42,29.3-27.72,29.3,27.72-0.932,1.21-28.365-26.84-28.365,26.84Zm29.3-160.19-88.462,83.69-0.932-1.21,89.394-84.57,89.393,84.57-0.931,1.21Zm96.235,43.76-13.328,12.61-0.932-1.21,14.26-13.49,14.264,13.49-0.932,1.21Zm0-67.29L734.1,2582.62l-0.931-1.2,44.308-41.93,44.31,41.93-0.932,1.2Zm0,33.64-28.354,26.83-0.932-1.21,29.286-27.7,29.287,27.7-0.932,1.21Zm-74.357,216.26,74.357-70.35,74.358,70.35-0.932,1.21-73.426-69.47-73.425,69.47Zm-15.025-19.43,89.382-84.56,89.383,84.56-0.931,1.21-88.452-83.68-88.448,83.68Zm111.25-105.03,74.371-70.36,74.368,70.36-0.932,1.21-73.436-69.48-73.439,69.48Zm60.1,77.71,14.274-13.5,14.271,13.5-0.929,1.21-13.342-12.63-13.343,12.63Zm14.274-78.7-43.391,41.05-0.931-1.2,44.322-41.94,44.32,41.94-0.932,1.2Zm-29.3,59.27,29.3-27.72,29.3,27.72-0.932,1.21-28.365-26.84-28.368,26.84Zm29.3-160.19-88.462,83.69-0.931-1.21,89.393-84.57,89.393,84.57-0.934,1.21Zm96.235,43.76-13.329,12.61-0.931-1.21,14.234-13.47,0.016,0.02,0.024-.03,14.25,13.48-0.932,1.21Zm0-67.29-43.377,41.04-0.931-1.2,44.284-41.9,0.014,0.01,0.024-.02,44.3,41.91-0.94,1.2Zm0,33.64-28.354,26.83-0.932-1.21,29.262-27.68,0.014,0.01,0.024-.02,29.273,27.69-0.932,1.21Zm-74.357,216.26,74.333-70.33,0.014,0.02,0.024-.03,74.34,70.34-0.93,1.21-73.424-69.47-73.425,69.47Zm-15.025-19.43,89.358-84.54,0.014,0.02,0.024-.03,89.37,84.55-0.93,1.21-88.454-83.68L881.5,2773.26Zm185.616-173.3-73.434,69.48-0.932-1.21,74.366-70.36,74.37,70.36-0.93,1.21Zm0,134.56-13.34,12.63-0.93-1.21,14.27-13.5,14.28,13.5-0.94,1.21Zm0-67.28-43.39,41.05-0.93-1.2,44.32-41.94,44.32,41.94-0.93,1.2Zm0,33.64-28.36,26.84-0.93-1.21,29.29-27.72,29.3,27.72-0.93,1.21Zm0-134.56-88.457,83.69-0.934-1.21,89.391-84.57,89.4,84.57-0.94,1.21Zm96.24,43.76-13.33,12.61-0.93-1.21,14.24-13.47,0.01,0.02,0.02-.03,14.25,13.48-0.93,1.21Zm0-67.29-43.38,41.04-0.93-1.2,44.29-41.9,0.01,0.01,0.02-.02,44.3,41.91-0.93,1.2Zm0,33.64-28.35,26.83-0.94-1.21,29.27-27.68,0.01,0.01,0.02-.02,29.28,27.69-0.94,1.21Zm0,148-73.43,69.46-0.93-1.2,74.34-70.33,0.01,0.02,0.02-.03,74.35,70.34-0.93,1.21Zm-89.38,48.83,89.36-84.54,0.01,0.02,0.02-.03,89.37,84.55-0.93,1.21-88.45-83.68-88.45,83.68Zm-1354.171,75.62-73.438,69.48-0.931-1.21,74.369-70.36,74.369,70.36-0.931,1.21ZM-295.4,2993.65l14.274-13.5,14.274,13.5-0.931,1.21-13.343-12.63-13.343,12.63Zm-30.047-38.85,44.321-41.94,44.322,41.94-0.931,1.2-43.391-41.05L-324.52,2956Zm44.321-6.21-28.367,26.84-0.931-1.21,29.3-27.72,29.3,27.72-0.931,1.21Zm0-134.56-88.462,83.69-0.931-1.21,89.393-84.57,89.393,84.57-0.933,1.21Zm81.975,55.16,14.262-13.49,14.262,13.49-0.932,1.21-13.33-12.61-13.33,12.61Zm-30.048-38.85,44.225-41.85,0.016,0.02,0.085-.08,44.293,41.91-0.932,1.2-43.377-41.04-43.379,41.04Zm44.31-6.2-28.354,26.83-0.932-1.21,29.2-27.63,0.014,0.02,0.084-.08,29.271,27.69-0.933,1.21Zm43.173,188.85-43.173-40.85-43.173,40.85h-2.208l45.381-42.94,45.379,42.94h-2.206Zm-35.558,0-7.615-7.21-7.615,7.21h-2.207l9.822-9.3,9.822,9.3h-2.207Zm71.116,0-78.731-74.49-78.732,74.49h-2.206l80.938-76.58,80.938,76.58h-2.207ZM-376,2859.08v-2.09l12.895,12.2-0.933,1.21Zm0-67.28v-2.09l42.941,40.63-0.932,1.2Zm0,33.64v-2.09l27.919,26.41-0.932,1.21Zm77.364,187.55L-376,2939.79v-2.09l79.57,75.29h-2.206Zm-71.117,0-6.247-5.92v-2.08l8.455,8h-2.208Zm35.558,0L-376,2973.43v-2.09l44.013,41.65h-2.208Zm245.538-165.32-73.438,69.48-0.931-1.21,74.369-70.36,74.369,70.36-0.933,1.21Zm-14.274,145.98,14.274-13.5,14.273,13.5-0.932,1.21-13.341-12.63L-102,2994.86Zm14.274-78.7L-132.048,2956l-0.932-1.2,44.323-41.94,44.322,41.94-0.933,1.2Zm-29.3,59.27,29.3-27.72,29.3,27.72-0.932,1.21-28.367-26.84-28.367,26.84Zm29.3-160.19-88.462,83.69-0.931-1.21,89.393-84.57,89.393,84.57-0.933,1.21ZM7.58,2857.79L-5.752,2870.4l-0.93-1.21L7.58,2855.7l14.262,13.49-0.932,1.21Zm-44.31-27.45,44.283-41.9,0.073,0.07,0.027-.03,44.236,41.86-0.932,1.2L7.58,2790.5-35.8,2831.54Zm44.31-6.2-28.354,26.83-0.932-1.21,29.261-27.68,0.071,0.07,0.025-.03,29.215,27.64-0.933,1.21Zm43.173,188.85L7.58,2972.14l-43.174,40.85H-37.8l45.379-42.94,45.379,42.94H50.752Zm-35.558,0-7.615-7.21-7.615,7.21H-2.242l9.822-9.3,9.822,9.3H15.195Zm71.115,0L7.58,2938.5l-78.732,74.49H-73.36L7.58,2936.41l80.938,76.58H86.31Zm17.5-165.32-73.437,69.48-0.932-1.21,74.369-70.36,74.371,70.36-0.935,1.21Zm0,134.56-13.342,12.63-0.932-1.21,14.274-13.5,14.275,13.5-0.932,1.21Zm0-67.28L60.425,2956l-0.932-1.2,44.322-41.94,44.323,41.94-0.932,1.2Zm-29.3,59.27,29.3-27.72,29.3,27.72-0.929,1.21-28.368-26.84L75.45,2975.43Zm-60.1-77.71,89.393-84.57,89.394,84.57-0.932,1.21-88.462-83.69-88.46,83.69Zm171.368-27.32,14.264-13.49,14.261,13.49-0.932,1.21-13.329-12.61-13.332,12.61Zm-30.048-38.85,44.312-41.93,44.308,41.93-0.931,1.2-43.377-41.04-43.38,41.04Zm44.312-6.2L171.7,2850.97l-0.932-1.21,29.287-27.7,29.286,27.7-0.935,1.21Zm43.172,188.85-43.172-40.85-43.176,40.85h-2.2l45.381-42.94,45.378,42.94h-2.206Zm-35.557,0-7.615-7.21-7.615,7.21h-2.208l9.823-9.3,9.82,9.3h-2.2Zm71.115,0-78.73-74.49-78.733,74.49h-2.208l80.941-76.58,80.938,76.58h-2.208Zm17.5-165.32-73.436,69.48-0.932-1.21,74.368-70.36,74.371,70.36-0.934,1.21Zm0,134.56-13.342,12.63-0.932-1.21,14.274-13.5,14.274,13.5-0.931,1.21Zm-44.322-27.43,44.322-41.94,44.323,41.94-0.932,1.2-43.391-41.05L252.9,2956Zm15.025,19.42,29.3-27.72,29.3,27.72-0.931,1.21-28.366-26.84-28.365,26.84Zm29.3-160.19-88.461,83.69-0.932-1.21,89.393-84.57,89.394,84.57-0.932,1.21Zm81.975,55.16,14.264-13.49,14.26,13.49-0.931,1.21-13.329-12.61L379.2,2870.4Zm-30.048-38.85,44.309-41.93,44.311,41.93-0.931,1.2-43.377-41.04-43.38,41.04Zm44.312-6.2-28.355,26.83-0.932-1.21,29.287-27.7,29.283,27.7-0.932,1.21ZM435.7,3012.99l-43.172-40.85-43.176,40.85h-2.2l45.378-42.94,45.38,42.94h-2.2Zm-35.56,0-7.612-7.21-7.615,7.21h-2.208l9.82-9.3,9.823,9.3H400.14Zm71.118,0-78.73-74.49L313.8,3012.99h-2.208l80.938-76.58,80.941,76.58h-2.208Zm17.5-165.32-73.439,69.48-0.931-1.21,74.37-70.36,74.371,70.36-0.935,1.21Zm0,134.56-13.342,12.63-0.932-1.21,14.274-13.5,14.274,13.5-0.931,1.21Zm0-67.28L445.372,2956l-0.931-1.2,44.322-41.94,44.323,41.94-0.932,1.2Zm-29.3,59.27,29.3-27.72,29.3,27.72-0.932,1.21-28.365-26.84L460.4,2975.43Zm29.3-160.19L400.3,2897.72l-0.931-1.21,89.393-84.57,89.394,84.57-0.932,1.21Zm81.975,55.16L585,2855.7l14.261,13.49-0.932,1.21L585,2857.79,571.67,2870.4Zm-30.048-38.85L585,2788.41l44.309,41.93-0.93,1.2L585,2790.5l-43.377,41.04Zm44.309-6.2-28.355,26.83-0.929-1.21L585,2822.06l29.284,27.7-0.932,1.21Zm43.172,188.85L585,2972.14l-43.173,40.85h-2.208L585,2970.05l45.38,42.94h-2.208Zm-35.557,0L585,3005.78l-7.615,7.21h-2.208l9.823-9.3,9.821,9.3h-2.208Zm71.117,0L585,2938.5l-78.73,74.49h-2.208L585,2936.41l80.938,76.58h-2.206Zm-56.865-97.05,74.371-70.36,74.368,70.36-0.932,1.21-73.436-69.48L607.8,2917.15Zm74.371,66.29-13.343,12.63-0.931-1.21,14.274-13.5,14.274,13.5-0.932,1.21Zm-44.322-27.43,44.322-41.94,44.322,41.94-0.931,1.2-43.391-41.05L637.846,2956Zm15.022,19.42,29.3-27.72,29.3,27.72-0.932,1.21-28.365-26.84-28.365,26.84Zm29.3-160.19-88.462,83.69-0.932-1.21,89.394-84.57,89.393,84.57-0.931,1.21Zm81.975,55.16,14.263-13.49,14.261,13.49-0.932,1.21-13.332-12.61-13.328,12.61Zm14.26-78.69L734.1,2831.54l-0.931-1.2,44.308-41.93,44.31,41.93-0.932,1.2Zm0,33.64-28.354,26.83-0.932-1.21,29.286-27.7,29.287,27.7-0.932,1.21Zm43.173,188.85-43.173-40.85L734.3,3012.99h-2.208l45.38-42.94,45.381,42.94h-2.208Zm-35.557,0-7.616-7.21-7.615,7.21h-2.2l9.82-9.3,9.824,9.3h-2.208Zm71.117,0-78.733-74.49-78.73,74.49h-2.208l80.938-76.58,80.939,76.58h-2.206Zm-56.865-97.05,74.371-70.36,74.368,70.36-0.932,1.21-73.436-69.48-73.439,69.48Zm60.1,77.71,14.274-13.5,14.271,13.5-0.929,1.21-13.342-12.63-13.343,12.63Zm14.274-78.7L830.32,2956l-0.931-1.2,44.322-41.94,44.32,41.94L917.1,2956Zm-29.3,59.27,29.3-27.72,29.3,27.72-0.932,1.21-28.365-26.84-28.368,26.84Zm29.3-160.19-88.462,83.69-0.931-1.21,89.393-84.57,89.393,84.57-0.934,1.21Zm81.975,55.16,14.234-13.47,0.016,0.02,0.024-.03,14.25,13.48-0.932,1.21-13.332-12.61-13.329,12.61Zm14.26-78.69-43.377,41.04-0.931-1.2,44.225-41.85,0.073,0.09,0.083-.1,44.241,41.86-0.94,1.2Zm0,33.64-28.354,26.83-0.932-1.21,29.2-27.63,0.073,0.09,0.083-.09,29.214,27.63-0.932,1.21Zm43.174,188.85-43.174-40.85-43.172,40.85h-2.208l45.356-42.92,0.014,0.02,0.024-.03,45.37,42.93h-2.21Zm-35.558,0-7.616-7.21-7.615,7.21h-2.205l9.8-9.27,0.014,0.01,0.024-.02,9.809,9.28h-2.207Zm71.118,0-78.734-74.49-78.73,74.49h-2.208l80.914-76.56,0.014,0.02,0.024-.03,80.92,76.57h-2.2Zm17.5-165.32-73.434,69.48-0.932-1.21,74.366-70.36,74.37,70.36-0.93,1.21Zm0,134.56-13.34,12.63-0.93-1.21,14.27-13.5,14.28,13.5-0.94,1.21Zm0-67.28L1022.79,2956l-0.93-1.2,44.32-41.94,44.32,41.94-0.93,1.2Zm0,33.64-28.36,26.84-0.93-1.21,29.29-27.72,29.3,27.72-0.93,1.21Zm0-134.56-88.457,83.69-0.934-1.21,89.391-84.57,89.4,84.57-0.94,1.21Zm96.24,43.76-13.33,12.61-0.93-1.21,14.24-13.47,0.01,0.02,0.02-.03,14.25,13.48-0.93,1.21Zm0-67.29-43.38,41.04-0.93-1.2,44.23-41.85,0.07,0.09,0.08-.1,44.24,41.86-0.93,1.2Zm0,33.64-28.35,26.83-0.94-1.21,29.21-27.63,0.07,0.09,0.08-.09,29.22,27.63-0.94,1.21Zm43.17,188.85-43.17-40.85-43.17,40.85h-2.21l45.36-42.92,0.01,0.02,0.02-.03,45.37,42.93h-2.21Zm-35.55,0-7.62-7.21-7.61,7.21h-2.21l9.8-9.27,0.01,0.01,0.02-.02,9.81,9.28h-2.2Zm71.11,0-78.73-74.49-78.73,74.49h-2.21l80.92-76.56,0.01,0.02,0.02-.03,80.93,76.57h-2.21Zm17.51-730.45-36.57,34.6,0.74-.96-1.66-1.58,1.8,1.39,5.2-6.71,30.49-28.82,30.63,28.98,4.26,5.53,48.61-45.99h2.21l-49.89,47.2,0.75,0.96Zm-85.71-13.56h2.2l46.6,44.09-0.93,1.2Zm85.71,80.85-73.44,69.48-0.93-1.21,74.37-70.36,74.37,70.36-0.94,1.21Zm0,134.56-13.35,12.63-0.93-1.21,14.28-13.5,14.27,13.5-0.93,1.21Zm0-67.28-43.39,41.05-0.93-1.2,44.32-41.94,44.32,41.94-0.93,1.2Zm0,33.64-28.37,26.84-0.93-1.21,29.3-27.72,29.3,27.72-0.94,1.21Zm0-134.56-88.47,83.69-0.93-1.21,89.4-84.57,89.39,84.57-0.93,1.21Zm21.87-22.55,26.08-24.66h2.2l-27.34,25.87Zm-15.02-19.43,5.54-5.23h2.2l-6.81,6.44Zm60.1,77.71,29.2-27.63,0.07,0.09,0.09-.1,29.21,27.64-0.93,1.21-28.36-26.83-28.35,26.83Zm-45.08,190.64,74.34-70.33,0.01,0.02,0.03-.02,74.34,70.33-0.93,1.21-73.43-69.47-73.42,69.47Zm-15.02-19.43,89.36-84.54,0.01,0.02,0.03-.03,89.36,84.55-0.92,1.21-88.46-83.68-88.45,83.68Zm-103.09-163.18-13.33,12.61-0.93-1.21,14.24-13.47,0.01,0.02,0.02-.03,14.25,13.48-0.93,1.21Zm0-67.29-43.38,41.04-0.93-1.2,44.23-41.85,0.07,0.09,0.08-.1,44.24,41.86-0.93,1.2Zm81.64-23.68h2.21l5.53,5.23-0.93,1.21Zm-35.56,0h2.21l26.07,24.66-0.93,1.21Zm206.81,47.2-1.68-1.59,1.82,1.4,5.19-6.71,30.49-28.82,30.63,28.98,4.26,5.53,48.62-45.99h2.2l-49.89,47.2,0.75,0.96-36.57-34.6-36.58,34.61Zm-49.89-47.2h2.21l46.6,44.09-0.94,1.2Zm85.71,80.85-73.44,69.48-0.93-1.21,74.37-70.36,74.37,70.36-0.93,1.21Zm0,134.56-13.34,12.63-0.93-1.21,14.27-13.5,14.27,13.5-0.93,1.21Zm0-67.28-43.39,41.05-0.93-1.2,44.32-41.94,44.32,41.94-0.93,1.2Zm-29.3,59.27,29.3-27.72,29.3,27.72-0.93,1.21-28.37-26.84-28.37,26.84Zm29.3-160.19-88.46,83.69-0.93-1.21,89.39-84.57,89.39,84.57-0.93,1.21Zm81.97,55.16,12.9-12.2v2.09l-11.96,11.32Zm-60.09-77.71,26.07-24.66h2.2l-27.34,25.87Zm-15.02-19.43,5.53-5.23h2.21l-6.81,6.44Zm45.07,58.29,42.94-40.63v2.09l-42.01,39.74Zm15.02,19.42,27.92-26.41v2.09l-26.99,25.53Zm-391.47,88.72-60.43-57.17-60.42,57.17,0.75,0.96-36.564-34.58-36.561,34.59,0.751-.97-60.425-57.17-60.428,57.17,0.749,0.96-36.56-34.58-36.561,34.59,0.751-.97-60.425-57.17-60.425,57.17,0.754,0.97L585,2407.02l-36.568,34.59,0.757-.97-60.425-57.17-60.425,57.17,0.754,0.97-36.564-34.59-36.573,34.6,0.759-.98-60.425-57.17-60.425,57.17,0.751,0.97-36.561-34.59-36.57,34.59,0.756-.97-60.425-57.17-60.424,57.17,0.754,0.97L7.58,2407.02l-36.566,34.59,0.754-.97-60.425-57.17-60.426,57.17,0.749,0.97-36.56-34.59-36.566,34.59,0.754-.97-60.425-57.17-60.424,57.17,0.752,0.97-35.2-33.3v-2.09l29.254,27.68,1.5,1.96,2.763,3.57,61.356-58.05,59.347,56.15-0.742.96,2.183,1.68,4.971-6.43,30.478-28.81,30.622,28.97,1.494,1.96,2.764,3.57,61.357-58.05,61.355,58.05,1.673-2.16,2.729-3.53,30.478-28.81L38.2,2433.9l4.258,5.53,61.356-58.05,59.345,56.15-0.772,1,2.183,1.68,5-6.47,30.476-28.81,30.624,28.97,1.492,1.96,2.766,3.57,61.356-58.05,61.357,58.05,4.338-5.61,30.541-28.89,30.624,28.97,1.5,1.96,2.763,3.57,61.356-58.05,61.357,58.05,2.733-3.53,1.667-2.16L585,2404.93l30.624,28.97,1.5,1.96,2.762,3.57,61.357-58.05,61.356,58.05,2.734-3.53,1.666-2.16,30.479-28.81L808.1,2433.9l1.492,1.96,2.765,3.57,61.357-58.05,61.354,58.05,4.4-5.69,30.455-28.79,0.014,0.02,0.024-.03,30.61,28.96,4.26,5.53,61.35-58.05,61.36,58.05,0.95-1.22,3.45-4.47,30.46-28.79,0.01,0.02,0.02-.03,30.61,28.96,4.26,5.53,61.36-58.05,59.34,56.15-0.93,1.2-58.41-55.26-60.43,57.17,0.75,0.96-36.56-34.58-36.57,34.6Zm194.3-2.37,3.51-4.53,30.45-28.79,0.01,0.02,0.03-.03,30.61,28.96,4.25,5.53,61.36-58.05,59.34,56.15-0.93,1.2-58.41-55.26-60.43,57.17,0.76,0.97-36.57-34.59-36.57,34.59Zm195.98-4.53,29.11-27.52v2.09l-35.19,33.3Zm-176.26-62.39,14.24-13.47,0.01,0.02,0.03-.03,14.24,13.48-0.93,1.21-13.33-12.61-13.33,12.61Zm-30.05-38.86,44.23-41.84,0.07,0.09,0.09-.1,44.23,41.86-0.93,1.2-43.38-41.04-43.37,41.04Zm125.96-63.51h2.2l5.53,5.23-0.92,1.21Zm-35.57,0h2.21l26.07,24.66-0.93,1.21Zm-142.31,329.77-73.44,69.48-0.93-1.21,74.37-70.36,74.37,70.36-0.94,1.21Zm0,134.56-13.35,12.63-0.93-1.21,14.28-13.5,14.27,13.5-0.93,1.21Zm0-67.28-43.39,41.05-0.93-1.2,44.32-41.94,44.32,41.94-0.93,1.2Zm0,33.64-28.37,26.84-0.93-1.21,29.3-27.72,29.3,27.72-0.94,1.21Zm0-134.56-88.47,83.69-0.93-1.21,89.4-84.57,89.39,84.57-0.93,1.21Zm81.97,55.16,14.24-13.47,0.01,0.02,0.03-.03,14.24,13.48-0.93,1.21-13.33-12.61-13.33,12.61Zm14.26-78.69-43.37,41.04-0.94-1.21,44.29-41.89,0.01,0.01,0.03-.02,44.29,41.91-0.93,1.2Zm-29.28,59.26,29.26-27.68,0.01,0.01,0.03-.02,29.27,27.69-0.93,1.21-28.36-26.83-28.35,26.83Zm-45.08,190.64,74.34-70.33,0.01,0.02,0.03-.02,74.34,70.33-0.93,1.21-73.43-69.47-73.42,69.47Zm-15.02-19.43,89.36-84.54,0.01,0.02,0.03-.03,89.36,84.55-0.92,1.21-88.46-83.68-88.45,83.68ZM837.887,2565.1l-60.415-57.16-60.411,57.16,0.749,0.96-36.573-34.6-36.575,34.61,0.751-.97-1.678-1.59,1.82,1.4,5.19-6.71,30.492-28.82,30.632,28.98,4.258,5.53,61.345-58.04,61.347,58.04,4.4-5.69,30.493-28.82,30.632,28.98,4.258,5.53,61.321-58.01,0.014,0.01,0.024-.02,61.33,58.02,4.4-5.69,30.49-28.82,30.64,28.98,4.25,5.53,61.33-58.01,0.01,0.01,0.02-.02,59.32,56.12-0.93,1.2-58.4-55.25-60.41,57.16,0.74,0.96-36.57-34.6-36.57,34.6,0.75-.96-60.414-57.16-60.414,57.16,0.741,0.95-36.562-34.59-36.576,34.61Zm577.423,0-1.68-1.59,1.82,1.4,5.19-6.71,30.49-28.82,30.63,28.98,4.26,5.53,59.98-56.75v2.09l-59.05,55.87,0.75,0.96-36.57-34.6-36.58,34.61Zm-1347.319,0-1.675-1.59,1.818,1.4,5.192-6.71,30.489-28.82,30.633,28.98,4.26,5.53,61.346-58.04,59.331,56.14-0.931,1.2-58.4-55.25-60.415,57.16,0.749,0.96-36.573-34.6L67.24,2566.07Zm384.948,0-1.675-1.59,1.818,1.4,5.189-6.71,30.492-28.82,30.633,28.98,4.26,5.53L585,2505.85l59.334,56.14-0.932,1.2L585,2507.94l-60.414,57.16,0.749,0.96-36.573-34.6-36.575,34.61Zm-192.474,0-1.675-1.59,1.818,1.4,5.189-6.71,30.492-28.82,30.633,28.98,4.26,5.53,61.343-58.04,59.334,56.14-0.931,1.2-58.4-55.25-60.415,57.16,0.749,0.96-36.573-34.6-36.575,34.61Zm-384.946,0-60.413-57.16-60.414,57.16,0.744,0.96-36.567-34.6-36.571,34.6,0.748-.96-1.669-1.58,1.812,1.39,5.19-6.71,30.49-28.82,30.631,28.98,4.26,5.53,61.346-58.04,61.344,58.04,4.4-5.69,30.49-28.82,30.631,28.98,4.26,5.53L7.58,2505.85l59.331,56.14-0.931,1.2-58.4-55.25-60.414,57.16,0.744,0.96-36.567-34.6-36.574,34.61Zm1383.141-33.64-36.57,34.6,0.74-.96-1.66-1.58,1.8,1.39,5.2-6.71,30.49-28.82,30.63,28.98,4.26,5.53,61.32-58.01,0.01,0.01,0.03-.02,59.32,56.12-0.94,1.2-58.4-55.25-60.41,57.16,0.75,0.96ZM-376,2509.23v-2.09l57.965,54.85-0.93,1.2Zm1827.13,89.52-73.44,69.48-0.93-1.21,74.37-70.36,74.37,70.36-0.93,1.21Zm0,134.56-13.34,12.63-0.93-1.21,14.27-13.5,14.27,13.5-0.93,1.21Zm0-67.28-43.39,41.05-0.93-1.2,44.32-41.94,44.32,41.94-0.93,1.2Zm-29.3,59.27,29.3-27.72,29.3,27.72-0.93,1.21-28.37-26.84-28.37,26.84Zm29.3-160.19-88.46,83.69-0.93-1.21,89.39-84.57,89.39,84.57-0.93,1.21Zm81.97,55.16,12.9-12.2v2.09l-11.96,11.32Zm-60.09-77.71L1546,2473.5v2.09l-72.06,68.18Zm-15.02-19.43,88.01-83.27v2.09l-87.08,82.39Zm45.07,58.29,42.94-40.63v2.09l-42.01,39.74Zm15.02,19.42,27.92-26.41v2.09l-26.99,25.53ZM585,2655.94l-36.56,34.59,3.988-5.16,2.093-2.71L585,2653.85l30.624,28.97,1.5,1.96,2.762,3.57,61.357-58.05,59.345,56.15-0.932,1.2-58.413-55.26-60.425,57.17,0.751,0.97Zm-223.018,26.8,30.544-28.89,30.624,28.97,1.5,1.96,2.763,3.57,61.356-58.05,59.345,56.15-0.932,1.2-58.413-55.26-60.425,57.17,0.752,0.97-36.562-34.59-36.565,34.59Zm-192.406-.08,30.476-28.81,30.624,28.97,1.492,1.96,2.766,3.57,61.356-58.05,59.345,56.15-0.931,1.2-58.414-55.26-60.425,57.17,0.751,0.97-36.561-34.59-36.565,34.59Zm1185.315-26.72-36.55,34.58,6.08-7.86,30.45-28.79,0.01,0.02,0.03-.03,30.61,28.96,4.25,5.53,61.36-58.05,59.34,56.15-0.93,1.2-58.41-55.26-60.43,57.17,0.76,0.97Zm-1347.31,0-36.559,34.58,6.08-7.86,30.478-28.81L38.2,2682.82l4.258,5.53,61.356-58.05,59.345,56.15-0.931,1.2-58.414-55.26-60.424,57.17,0.751,0.97ZM-376,2657.23v-2.09l29.254,27.68,1.5,1.96,2.763,3.57,61.356-58.05,59.347,56.15-0.932,1.2-58.415-55.26-60.425,57.17,0.75,0.97Zm191.106-1.29-36.554,34.58,6.076-7.86,30.478-28.81,30.622,28.97,1.494,1.96,2.764,3.57,61.357-58.05,59.345,56.15-0.932,1.2-58.414-55.26-60.426,57.17,0.748,0.96Zm1154.84,0-36.553,34.58,6.074-7.86,30.455-28.79,0.014,0.02,0.024-.03,30.61,28.96,4.26,5.53,61.35-58.05,59.35,56.15-0.93,1.2-58.42-55.26-60.42,57.17,0.74,0.96Zm-192.474,0-36.553,34.58,3.982-5.15,2.092-2.71,30.479-28.81,30.625,28.97,1.492,1.96,2.765,3.57,61.357-58.05,59.345,56.15-0.932,1.2-58.413-55.26-60.428,57.17,0.746,0.96Zm384.948,0-36.55,34.58,6.07-7.86,30.46-28.79,0.01,0.02,0.02-.03,30.61,28.96,4.26,5.53,61.36-58.05,59.34,56.15-0.93,1.2-58.41-55.26-60.43,57.17,0.75,0.96Zm354.47,26.72,29.11-27.52v2.09l-35.19,33.29Zm-258.23,165.01-73.44,69.48-0.93-1.21,74.37-70.36,74.37,70.36-0.94,1.21Zm0,134.56-13.35,12.63-0.93-1.21,14.28-13.5,14.27,13.5-0.93,1.21Zm0-67.28L1215.27,2956l-0.93-1.2,44.32-41.94,44.32,41.94-0.93,1.2Zm0,33.64-28.37,26.84-0.93-1.21,29.3-27.72,29.3,27.72-0.94,1.21Zm0-134.56-88.47,83.69-0.93-1.21,89.4-84.57,89.39,84.57-0.93,1.21Zm81.97,55.16,14.24-13.47,0.01,0.02,0.03-.03,14.24,13.48-0.93,1.21-13.33-12.61-13.33,12.61Zm-30.05-38.86,44.23-41.84,0.07,0.09,0.09-.1,44.23,41.86-0.93,1.2-43.38-41.04-43.37,41.04Zm15.03,19.43,29.2-27.63,0.07,0.09,0.09-.09,29.21,27.63-0.93,1.21-28.36-26.83-28.35,26.83Zm72.46,163.23-43.18-40.85-43.17,40.85h-2.21l45.36-42.92,0.01,0.02,0.03-.02,45.36,42.92h-2.2Zm-35.56,0-7.62-7.21-7.61,7.21h-2.21l9.8-9.27,0.01,0.01,0.03-.02,9.8,9.28h-2.2Zm71.11,0-78.73-74.49-78.73,74.49h-2.2l80.91-76.56,0.01,0.02,0.03-.03,80.92,76.57h-2.21ZM837.887,2814.02l-60.415-57.16-60.411,57.16,0.749,0.96-36.573-34.6-36.575,34.61,0.751-.97-1.675-1.59,1.817,1.4,5.19-6.71,30.492-28.82,30.632,28.98,4.258,5.53,61.345-58.04,61.347,58.04,4.4-5.69,30.493-28.82,30.632,28.98,4.258,5.53,61.321-58.01,0.014,0.01,0.024-.02,61.33,58.02,4.4-5.69,30.49-28.82,30.64,28.98,4.25,5.53,61.33-58.01,0.01,0.01,0.02-.02,59.32,56.12-0.93,1.2-58.4-55.25-60.41,57.16,0.74,0.96-36.57-34.6-36.56,34.6,0.74-.96-60.414-57.16-60.414,57.16,0.741,0.95-36.562-34.59-36.576,34.61Zm577.423,0-1.68-1.59,1.82,1.4,5.19-6.71,30.49-28.82,30.63,28.98,4.26,5.53,59.98-56.74v2.08l-59.05,55.87,0.75,0.96-36.57-34.6-36.58,34.61Zm-1347.319,0-1.672-1.59,1.815,1.4,5.192-6.71,30.489-28.82,30.633,28.98,4.26,5.53,61.346-58.04,59.331,56.14-0.931,1.2-58.4-55.25-60.415,57.16,0.749,0.96-36.573-34.6L67.24,2814.99Zm384.948,0-1.672-1.59,1.815,1.4,5.189-6.71,30.492-28.82,30.633,28.98,4.26,5.53L585,2754.77l59.334,56.14-0.932,1.2L585,2756.86l-60.414,57.16,0.749,0.96-36.573-34.6-36.575,34.61Zm-192.474,0-1.672-1.59,1.815,1.4,5.189-6.71,30.492-28.82,30.633,28.98,4.26,5.53,61.343-58.04,59.334,56.14-0.931,1.2-58.4-55.25-60.415,57.16,0.749,0.96-36.573-34.6-36.575,34.61Zm-384.946,0-1.67-1.58,1.813,1.39,5.191-6.71,30.49-28.82,30.631,28.98,4.26,5.53L7.58,2754.77l59.331,56.14-0.931,1.2-58.4-55.25-60.414,57.16,0.743,0.96-36.566-34.6-36.573,34.61Zm1383.141-33.64-36.57,34.6,0.74-.96-1.66-1.58,1.8,1.39,5.2-6.71,30.49-28.82,30.63,28.98,4.26,5.53,61.32-58.01,0.01,0.01,0.03-.02,59.32,56.12-0.94,1.2-58.4-55.25-60.41,57.16,0.75,0.96Zm-1575.614,33.64-1.667-1.58,1.81,1.39,5.19-6.71,30.49-28.82,30.631,28.98,4.26,5.53,61.346-58.04,59.333,56.14-0.932,1.2-58.4-55.25-60.414,57.16,0.744,0.96-36.567-34.6-36.57,34.6ZM-376,2758.15v-2.08l57.966,54.84-0.931,1.2Zm1827.13,89.52-73.44,69.48-0.93-1.21,74.37-70.36,74.37,70.36-0.93,1.21Zm0,134.56-13.34,12.63-0.93-1.21,14.27-13.5,14.27,13.5-0.93,1.21Zm0-67.28L1407.74,2956l-0.93-1.2,44.32-41.94,44.32,41.94-0.93,1.2Zm-29.3,59.27,29.3-27.72,29.3,27.72-0.93,1.21-28.37-26.84-28.37,26.84Zm29.3-160.19-88.46,83.69-0.93-1.21,89.39-84.57,89.39,84.57-0.93,1.21Zm81.97,55.16,12.9-12.2v2.09l-11.96,11.32Zm-60.09-77.71,72.99-69.06v2.09l-72.06,68.18Zm-15.02-19.43,88.01-83.27v2.09l-87.08,82.39Zm45.07,58.29,42.94-40.63v2.09l-42.01,39.74Zm15.02,19.42,27.92-26.41v2.09l-26.99,25.53Zm-391.47,88.72-60.43-57.17-60.42,57.17,0.75,0.96-36.564-34.58-36.561,34.59,0.751-.97-60.425-57.17-60.428,57.17,0.749,0.96-36.56-34.58-36.561,34.59,0.751-.97-60.425-57.17-60.425,57.17,0.754,0.97L585,2904.86l-36.568,34.59,0.757-.97-60.425-57.17-60.425,57.17,0.754,0.97-36.564-34.59-36.573,34.6,0.759-.98-60.425-57.17-60.425,57.17,0.751,0.97-36.561-34.59-36.57,34.59,0.756-.97-60.425-57.17-60.424,57.17,0.754,0.97L7.58,2904.86l-36.566,34.59,0.754-.97-60.425-57.17-60.426,57.17,0.749,0.97-36.56-34.59-36.566,34.59,0.754-.97-60.425-57.17-60.424,57.17,0.752,0.97-35.2-33.3v-2.09l29.254,27.68,1.5,1.96,2.763,3.57,61.356-58.05,59.347,56.15-0.742.96,2.183,1.68,4.971-6.43,30.478-28.81,30.622,28.97,1.494,1.96,2.764,3.57,61.357-58.05,61.355,58.05,1.673-2.16,2.729-3.53,30.478-28.81L38.2,2931.74l4.258,5.53,61.356-58.05,59.345,56.15-0.772,1,2.183,1.68,5-6.47,30.476-28.81,30.624,28.97,1.492,1.96,2.766,3.57,61.356-58.05,61.357,58.05,4.338-5.61,30.541-28.89,30.624,28.97,1.5,1.96,2.763,3.57,61.356-58.05,61.357,58.05,2.733-3.53,1.667-2.16L585,2902.77l30.624,28.97,1.5,1.96,2.762,3.57,61.357-58.05,61.356,58.05,2.734-3.53,1.666-2.16,30.479-28.81,30.625,28.97,1.492,1.96,2.765,3.57,61.357-58.05,61.354,58.05,4.4-5.69,30.455-28.79,0.014,0.02,0.024-.03,30.61,28.96,4.26,5.53,61.35-58.05,61.36,58.05,0.95-1.22,3.45-4.47,30.46-28.79,0.01,0.02,0.02-.03,30.61,28.96,4.26,5.53,61.36-58.05,59.34,56.15-0.93,1.21-58.41-55.27-60.43,57.17,0.75,0.96-36.56-34.58-36.57,34.6Zm194.3-2.37,3.51-4.53,30.45-28.79,0.01,0.02,0.03-.03,30.61,28.96,4.25,5.53,61.36-58.05,59.34,56.15-0.93,1.2-58.41-55.26-60.43,57.17,0.76,0.97-36.57-34.59-36.57,34.59Zm195.98-4.53,29.11-27.52v2.09l-35.19,33.3Zm-14.9,81.41,44.01-41.65v2.09l-41.81,39.56h-2.2Zm35.55,0,8.46-8v2.08l-6.25,5.92h-2.21Zm-71.11,0L1546,2937.7v2.09l-77.36,73.2h-2.21Z" transform="translate(0 -2266.97)"/>
</svg>
